<svg width="89" height="100" viewBox="0 0 89 100" fill="none" xmlns="http://www.w3.org/2000/svg">
<path d="M78.207 35.8678L19.5519 66.9302L19.5519 4.80537L78.207 35.8678Z" fill="white"/>
<rect x="36.8181" y="31.0083" width="19.5517" height="52.9917" fill="#B60000"/>
<rect x="61.4482" y="31.0083" width="19.5517" height="52.9917" fill="#B60000"/>
<path d="M17.128 97V88.6H18.412L22.084 94.732H21.412L25.024 88.6H26.308L26.32 97H24.844L24.832 90.916H25.144L22.072 96.04H21.376L18.256 90.916H18.616V97H17.128ZM31.3249 97.084C30.6689 97.084 30.0849 96.944 29.5729 96.664C29.0609 96.376 28.6569 95.984 28.3609 95.488C28.0649 94.992 27.9169 94.428 27.9169 93.796C27.9169 93.156 28.0649 92.592 28.3609 92.104C28.6569 91.608 29.0609 91.22 29.5729 90.94C30.0849 90.66 30.6689 90.52 31.3249 90.52C31.9889 90.52 32.5769 90.66 33.0889 90.94C33.6089 91.22 34.0129 91.604 34.3009 92.092C34.5969 92.58 34.7449 93.148 34.7449 93.796C34.7449 94.428 34.5969 94.992 34.3009 95.488C34.0129 95.984 33.6089 96.376 33.0889 96.664C32.5769 96.944 31.9889 97.084 31.3249 97.084ZM31.3249 95.8C31.6929 95.8 32.0209 95.72 32.3089 95.56C32.5969 95.4 32.8209 95.168 32.9809 94.864C33.1489 94.56 33.2329 94.204 33.2329 93.796C33.2329 93.38 33.1489 93.024 32.9809 92.728C32.8209 92.424 32.5969 92.192 32.3089 92.032C32.0209 91.872 31.6969 91.792 31.3369 91.792C30.9689 91.792 30.6409 91.872 30.3529 92.032C30.0729 92.192 29.8489 92.424 29.6809 92.728C29.5129 93.024 29.4289 93.38 29.4289 93.796C29.4289 94.204 29.5129 94.56 29.6809 94.864C29.8489 95.168 30.0729 95.4 30.3529 95.56C30.6409 95.72 30.9649 95.8 31.3249 95.8ZM37.7075 97L34.9595 90.592H36.5195L38.8835 96.244H38.1155L40.5635 90.592H42.0035L39.2555 97H37.7075ZM42.941 97V90.592H44.441V97H42.941ZM43.697 89.536C43.417 89.536 43.185 89.448 43.001 89.272C42.825 89.096 42.737 88.884 42.737 88.636C42.737 88.38 42.825 88.168 43.001 88C43.185 87.824 43.417 87.736 43.697 87.736C43.977 87.736 44.205 87.82 44.381 87.988C44.565 88.148 44.657 88.352 44.657 88.6C44.657 88.864 44.569 89.088 44.393 89.272C44.217 89.448 43.985 89.536 43.697 89.536ZM49.4218 97.084C48.7098 97.084 48.0858 96.944 47.5498 96.664C47.0218 96.376 46.6098 95.984 46.3138 95.488C46.0258 94.992 45.8818 94.428 45.8818 93.796C45.8818 93.156 46.0218 92.592 46.3018 92.104C46.5898 91.608 46.9818 91.22 47.4778 90.94C47.9818 90.66 48.5538 90.52 49.1938 90.52C49.8178 90.52 50.3738 90.656 50.8618 90.928C51.3498 91.2 51.7338 91.584 52.0138 92.08C52.2938 92.576 52.4338 93.16 52.4338 93.832C52.4338 93.896 52.4298 93.968 52.4218 94.048C52.4218 94.128 52.4178 94.204 52.4098 94.276H47.0698V93.28H51.6178L51.0298 93.592C51.0378 93.224 50.9618 92.9 50.8018 92.62C50.6418 92.34 50.4218 92.12 50.1418 91.96C49.8698 91.8 49.5538 91.72 49.1938 91.72C48.8258 91.72 48.5018 91.8 48.2218 91.96C47.9498 92.12 47.7338 92.344 47.5738 92.632C47.4218 92.912 47.3458 93.244 47.3458 93.628V93.868C47.3458 94.252 47.4338 94.592 47.6098 94.888C47.7858 95.184 48.0338 95.412 48.3538 95.572C48.6738 95.732 49.0418 95.812 49.4578 95.812C49.8178 95.812 50.1418 95.756 50.4298 95.644C50.7178 95.532 50.9738 95.356 51.1978 95.116L52.0018 96.04C51.7138 96.376 51.3498 96.636 50.9098 96.82C50.4778 96.996 49.9818 97.084 49.4218 97.084ZM53.3826 97V95.956L58.8066 89.332L58.9866 89.92H53.4666V88.6H60.3906V89.644L54.9666 96.268L54.7746 95.68H60.5466V97H53.3826ZM65.8179 97.12C65.1619 97.12 64.5579 97.012 64.0059 96.796C63.4539 96.58 62.9739 96.28 62.5659 95.896C62.1579 95.504 61.8419 95.048 61.6179 94.528C61.3939 94 61.2819 93.424 61.2819 92.8C61.2819 92.176 61.3939 91.604 61.6179 91.084C61.8419 90.556 62.1579 90.1 62.5659 89.716C62.9739 89.324 63.4539 89.02 64.0059 88.804C64.5579 88.588 65.1579 88.48 65.8059 88.48C66.4619 88.48 67.0619 88.588 67.6059 88.804C68.1579 89.02 68.6379 89.324 69.0459 89.716C69.4539 90.1 69.7699 90.556 69.9939 91.084C70.2179 91.604 70.3299 92.176 70.3299 92.8C70.3299 93.424 70.2179 94 69.9939 94.528C69.7699 95.056 69.4539 95.512 69.0459 95.896C68.6379 96.28 68.1579 96.58 67.6059 96.796C67.0619 97.012 66.4659 97.12 65.8179 97.12ZM65.8059 95.752C66.2299 95.752 66.6219 95.68 66.9819 95.536C67.3419 95.392 67.6539 95.188 67.9179 94.924C68.1819 94.652 68.3859 94.34 68.5299 93.988C68.6819 93.628 68.7579 93.232 68.7579 92.8C68.7579 92.368 68.6819 91.976 68.5299 91.624C68.3859 91.264 68.1819 90.952 67.9179 90.688C67.6539 90.416 67.3419 90.208 66.9819 90.064C66.6219 89.92 66.2299 89.848 65.8059 89.848C65.3819 89.848 64.9899 89.92 64.6299 90.064C64.2779 90.208 63.9659 90.416 63.6939 90.688C63.4299 90.952 63.2219 91.264 63.0699 91.624C62.9259 91.976 62.8539 92.368 62.8539 92.8C62.8539 93.224 62.9259 93.616 63.0699 93.976C63.2219 94.336 63.4299 94.652 63.6939 94.924C63.9579 95.188 64.2699 95.392 64.6299 95.536C64.9899 95.68 65.3819 95.752 65.8059 95.752ZM71.9835 97V88.6H73.2675L78.5355 95.068H77.8995V88.6H79.4475V97H78.1635L72.8955 90.532H73.5315V97H71.9835ZM83.1383 92.092H87.3143V93.376H83.1383V92.092ZM83.2583 95.692H87.9983V97H81.6983V88.6H87.8303V89.908H83.2583V95.692Z" fill="white"/>
</svg>
